<svg id="Line" viewBox="0 0 24 24" xmlns="http://www.w3.org/2000/svg"><path d="m22.24 3.88-2.12-2.12c-.68-.68-1.8-.68-2.48 0l-14.98 14.98c-.09.09-.16.2-.19.32l-1.17 4.09c-.13.44 0 .91.32 1.23.24.24.56.37.88.37.12 0 .23-.02.35-.05l4.09-1.17c.12-.04.23-.1.32-.19l14.98-14.98c.68-.68.68-1.8 0-2.48zm-12.65 13.01-2.48-2.48 8.94-8.94 2.48 2.48zm-6.01 1.76 1.77 1.77-2.48.71zm3.19 1.06-2.48-2.48 1.77-1.77 2.48 2.48zm14.42-14.42-1.59 1.59-2.48-2.48 1.59-1.59c.1-.1.26-.1.36 0l2.12 2.12c.1.1.1.26 0 .36z"/></svg>